<?xml version="1.0" encoding="UTF-8"?>
<svg id="katman_2" data-name="katman 2" xmlns="http://www.w3.org/2000/svg" viewBox="0 0 597.21 455.5">
  <defs>
    <style>
      .cls-1 {
        fill: #374151;
      }

      .cls-1, .cls-2, .cls-3, .cls-4 {
        stroke-width: 0px;
      }

      .cls-2 {
        fill: #3b82f6;
      }

      .cls-3 {
        fill: #2563eb;
      }

      .cls-4 {
        fill: #fff;
      }
    </style>
  </defs>
  <g id="Logo">
    <g>
      <path class="cls-1" d="M159.94,222.7c5.32-38.33,22.85-73.73,50.69-101.57,27.24-27.24,61.7-44.6,99.07-50.33v-30.29c-94.26,12.39-168.73,87.59-180.01,182.2h30.24Z"/>
      <path class="cls-1" d="M359.71,70.1c39.29,4.9,75.63,22.59,104.07,51.03,27.84,27.84,45.37,63.24,50.69,101.57h30.24c-11.48-96.27-88.39-172.45-185.01-182.79v30.19Z"/>
      <path class="cls-1" d="M514.48,272.7c-5.32,38.33-22.85,73.73-50.69,101.57-28.45,28.45-64.78,46.14-104.07,51.03v30.19c96.62-10.34,173.53-86.52,185.01-182.79h-30.24Z"/>
      <path class="cls-1" d="M309.71,424.61c-37.37-5.73-71.84-23.1-99.07-50.33-27.84-27.84-45.37-63.24-50.69-101.57h-30.24c11.28,94.61,85.75,169.81,180.01,182.2v-30.29Z"/>
    </g>
    <g>
      <circle class="cls-2" cx="337.21" cy="247.7" r="148"/>
      <circle class="cls-4" cx="278.92" cy="190.41" r="31.3"/>
      <circle class="cls-4" cx="334.42" cy="156.9" r="18.79"/>
      <circle class="cls-4" cx="245.42" cy="247.9" r="18.79"/>
      <path class="cls-3" d="M442.5,159.11s8.71,190.59-185.29,200.59l53.01,25.05,61.99-4.05,74-42,25-56,3-65-31.71-58.59Z"/>
      <path class="cls-1" d="M337.31,116.37c34.98,0,67.86,13.62,92.6,38.35,24.73,24.73,38.35,57.62,38.35,92.6s-13.62,67.86-38.35,92.6c-24.73,24.73-57.62,38.35-92.6,38.35s-67.86-13.62-92.6-38.35c-24.73-24.73-38.35-57.62-38.35-92.6s13.62-67.86,38.35-92.6c24.73-24.73,57.62-38.35,92.6-38.35M337.31,94.42c-84.44,0-152.9,68.46-152.9,152.9s68.46,152.9,152.9,152.9,152.9-68.46,152.9-152.9-68.46-152.9-152.9-152.9h0Z"/>
    </g>
    <g>
      <circle class="cls-2" cx="547.11" cy="50.19" r="48.46"/>
      <circle class="cls-4" cx="537.83" cy="39.82" r="25.85"/>
      <path class="cls-3" d="M581.59,21.18s2.85,62.41-60.67,65.68l17.36,8.2,20.3-1.33,24.23-13.75,8.19-18.34.98-21.28-10.38-19.19Z"/>
      <path class="cls-1" d="M547.15,7.19c11.45,0,22.22,4.46,30.32,12.56,8.1,8.1,12.56,18.87,12.56,30.32s-4.46,22.22-12.56,30.32c-8.1,8.1-18.87,12.56-30.32,12.56s-22.22-4.46-30.32-12.56c-8.1-8.1-12.56-18.87-12.56-30.32s4.46-22.22,12.56-30.32c8.1-8.1,18.87-12.56,30.32-12.56M547.15,0c-27.65,0-50.06,22.41-50.06,50.06s22.41,50.06,50.06,50.06,50.06-22.41,50.06-50.06S574.79,0,547.15,0h0Z"/>
    </g>
    <g>
      <circle class="cls-2" cx="50.03" cy="247.8" r="48.46"/>
      <circle class="cls-4" cx="40.74" cy="237.43" r="25.85"/>
      <path class="cls-3" d="M84.51,218.79s2.85,62.41-60.67,65.68l17.36,8.2,20.3-1.33,24.23-13.75,8.19-18.34.98-21.28-10.38-19.19Z"/>
      <path class="cls-1" d="M50.06,204.8c11.45,0,22.22,4.46,30.32,12.56,8.1,8.1,12.56,18.87,12.56,30.32s-4.46,22.22-12.56,30.32c-8.1,8.1-18.87,12.56-30.32,12.56s-22.22-4.46-30.32-12.56c-8.1-8.1-12.56-18.87-12.56-30.32s4.46-22.22,12.56-30.32c8.1-8.1,18.87-12.56,30.32-12.56M50.06,197.61c-27.65,0-50.06,22.41-50.06,50.06s22.41,50.06,50.06,50.06,50.06-22.41,50.06-50.06-22.41-50.06-50.06-50.06h0Z"/>
    </g>
  </g>
</svg>